<?xml version="1.0" encoding="UTF-8" standalone="no"?>
<!DOCTYPE svg PUBLIC "-//W3C//DTD SVG 1.1//EN" "http://www.w3.org/Graphics/SVG/1.1/DTD/svg11.dtd">
<svg width="100%" height="100%" viewBox="0 0 512 512" version="1.1" xmlns="http://www.w3.org/2000/svg" xmlns:xlink="http://www.w3.org/1999/xlink" xml:space="preserve" xmlns:serif="http://www.serif.com/" style="fill-rule:evenodd;clip-rule:evenodd;stroke-linejoin:round;stroke-miterlimit:2;">
    <g transform="matrix(0.572822,0,0,0.572822,-1986.897784,-372.297083)">
        <path d="M4351.929,1102.083C4351.949,1103.826 4351.96,1105.572 4351.96,1107.32C4351.96,1348.195 4156.399,1543.756 3915.524,1543.756C3674.648,1543.756 3479.088,1348.195 3479.088,1107.32C3479.088,1105.572 3479.098,1103.826 3479.119,1102.083C3481.929,1340.549 3676.396,1533.281 3915.524,1533.281C4154.651,1533.281 4349.119,1340.549 4351.929,1102.083Z" style="fill:rgb(228,228,228);"/>
    </g>
    <g>
        <g transform="matrix(0.572822,0,0,0.572822,-1986.897784,-378.297083)">
            <path d="M4332.756,978.992C4345.239,1019.572 4351.96,1062.668 4351.96,1107.32C4351.96,1203.011 4321.096,1291.551 4268.79,1363.519C4246.374,1360.01 4224.372,1355.519 4206.811,1349.832C4171.405,1338.373 4127.919,1326.473 4097.655,1318.687L4071.652,1298.853L4158.623,1211.588L4133.942,1187.2L4042.269,1276.376L3787.359,1524.603C3762.338,1516.916 3738.272,1507.04 3715.385,1495.196L3832.332,1307.521C3832.332,1307.521 3813.38,1196.162 3849.08,1095.527C3851.577,1088.622 3854.222,1081.718 3857.16,1074.96C3867.15,1052.335 3880.372,1030.592 3897.561,1011.494L3814.262,1011.494C3814.262,973.59 3844.966,942.886 3882.87,942.886C3907.257,942.886 3928.706,955.667 3940.9,974.912C3988.352,944.796 4055.197,929.517 4148.633,941.123C4148.765,940.991 4269.232,968.218 4332.756,978.992ZM4086.354,1509.003C4065.767,1517.779 4044.37,1525.018 4022.307,1530.575L3963.231,1475.295L3965.287,1405.805L4024.787,1346.012L4071.505,1349.832L4045.207,1459.575L4086.354,1509.003Z" style="fill:rgb(250,250,250);"/>
        </g>
        <g transform="matrix(0.572822,0,0,0.572822,-1986.897784,-378.297083)">
            <path d="M3715.385,1495.196C3575.076,1422.59 3479.088,1276.076 3479.088,1107.32C3479.088,866.444 3674.648,670.884 3915.524,670.884C4111.747,670.884 4277.898,800.661 4332.756,978.992C4269.232,968.218 4148.765,940.991 4148.633,941.123C4055.197,929.517 3988.352,944.796 3940.9,974.912C3928.706,955.667 3907.257,942.886 3882.87,942.886C3844.966,942.886 3814.262,973.59 3814.262,1011.494L3897.561,1011.494C3880.372,1030.592 3867.15,1052.335 3857.16,1074.96C3854.222,1081.718 3851.577,1088.622 3849.08,1095.527C3813.38,1196.162 3832.332,1307.521 3832.332,1307.521L3715.385,1495.196ZM4268.79,1363.519C4222.56,1427.126 4159.581,1477.789 4086.354,1509.003L4045.207,1459.575L4071.505,1349.832L4024.787,1346.012L3965.287,1405.805L3963.231,1475.295L4022.307,1530.575C3988.13,1539.183 3952.357,1543.756 3915.524,1543.756C3870.932,1543.756 3827.892,1537.054 3787.359,1524.603L4042.269,1276.376L4133.942,1187.2L4158.623,1211.588L4071.652,1298.853L4097.655,1318.687C4127.919,1326.473 4171.405,1338.373 4206.811,1349.832C4224.372,1355.519 4246.374,1360.01 4268.79,1363.519Z" style="fill:rgb(23,147,209);"/>
        </g>
    </g>
    <g transform="matrix(0.572822,0,0,0.572822,-1986.897784,-378.297083)">
        <path d="M3479.119,1112.557C3479.098,1110.814 3479.088,1109.068 3479.088,1107.32C3479.088,866.444 3674.648,670.884 3915.524,670.884C4111.747,670.884 4277.898,800.661 4332.756,978.992C4331.583,978.793 4330.392,978.588 4329.181,978.378C4270.959,805.781 4107.657,681.359 3915.524,681.359C3676.396,681.359 3481.929,874.091 3479.119,1112.557Z" style="fill:rgb(228,228,228);fill-opacity:0.5;"/>
    </g>
</svg>
